<svg width="33" height="40" viewBox="0 0 33 40" fill="none" xmlns="http://www.w3.org/2000/svg">
<g id="eva:arrow-up-fill" clip-path="url(#clip0_66_419)" filter="url(#filter0_d_66_419)">
<g id="Vector" filter="url(#filter1_d_66_419)">
<path d="M4.88868 26.7622L4.88869 4.99327C4.88743 4.13386 5.13136 3.29166 5.59222 2.56417C6.05309 1.83668 6.71206 1.25363 7.49285 0.88252C8.41926 0.448093 9.44997 0.280769 10.4675 0.399616C11.485 0.518463 12.4485 0.918701 13.2481 1.55472L26.5293 12.4392C27.0257 12.8663 27.4239 13.3944 27.6968 13.9877C27.9696 14.5809 28.1108 15.2255 28.1108 15.8777C28.1108 16.5299 27.9696 17.1745 27.6968 17.7677C27.4239 18.361 27.0257 18.8891 26.5293 19.3163L13.2481 30.2007C12.4485 30.8367 11.485 31.237 10.4675 31.3558C9.44997 31.4747 8.41926 31.3073 7.49285 30.8729C6.71206 30.5018 6.05309 29.9187 5.59222 29.1913C5.13135 28.4638 4.88743 27.6216 4.88868 26.7622Z" fill="white" fill-opacity="0.5" shape-rendering="crispEdges"/>
</g>
</g>
<defs>
<filter id="filter0_d_66_419" x="0" y="0" width="33" height="40.5757" filterUnits="userSpaceOnUse" color-interpolation-filters="sRGB">
<feFlood flood-opacity="0" result="BackgroundImageFix"/>
<feColorMatrix in="SourceAlpha" type="matrix" values="0 0 0 0 0 0 0 0 0 0 0 0 0 0 0 0 0 0 127 0" result="hardAlpha"/>
<feOffset dy="4"/>
<feGaussianBlur stdDeviation="2"/>
<feComposite in2="hardAlpha" operator="out"/>
<feColorMatrix type="matrix" values="0 0 0 0 0 0 0 0 0 0 0 0 0 0 0 0 0 0 0.25 0"/>
<feBlend mode="normal" in2="BackgroundImageFix" result="effect1_dropShadow_66_419"/>
<feBlend mode="normal" in="SourceGraphic" in2="effect1_dropShadow_66_419" result="shape"/>
</filter>
<filter id="filter1_d_66_419" x="0.888672" y="0.362427" width="31.2222" height="39.0306" filterUnits="userSpaceOnUse" color-interpolation-filters="sRGB">
<feFlood flood-opacity="0" result="BackgroundImageFix"/>
<feColorMatrix in="SourceAlpha" type="matrix" values="0 0 0 0 0 0 0 0 0 0 0 0 0 0 0 0 0 0 127 0" result="hardAlpha"/>
<feOffset dy="4"/>
<feGaussianBlur stdDeviation="2"/>
<feComposite in2="hardAlpha" operator="out"/>
<feColorMatrix type="matrix" values="0 0 0 0 0 0 0 0 0 0 0 0 0 0 0 0 0 0 0.5 0"/>
<feBlend mode="normal" in2="BackgroundImageFix" result="effect1_dropShadow_66_419"/>
<feBlend mode="normal" in="SourceGraphic" in2="effect1_dropShadow_66_419" result="shape"/>
</filter>
<clipPath id="clip0_66_419">
<rect width="25" height="32.5758" fill="white" transform="translate(4)"/>
</clipPath>
</defs>
</svg>
